<svg xmlns="http://www.w3.org/2000/svg" height="32" viewBox="0 0 48 48" width="32" xmlns:v="https://vecta.io/nano"><linearGradient gradientUnits="userSpaceOnUse" id="A" x1="9.858" x2="38.142" y1="9.858" y2="38.142"><stop offset="0" stop-color="#21ad64"/><stop offset="1" stop-color="#088242"/></linearGradient><path d="M44 24c0 11.045-8.955 20-20 20S4 35.045 4 24 12.955 4 24 4s20 8.955 20 20z" fill="url(#A)"/><path d="M32.172 16.172L22 26.344l-5.172-5.172a2 2 0 0 0-2.828 0l-1.414 1.414a2 2 0 0 0 0 2.828l8 8a2 2 0 0 0 2.828 0l13-13a2 2 0 0 0 0-2.828L35 16.172a2 2 0 0 0-2.828 0z" opacity=".05"/><path d="M20.939 33.061l-8-8a1.5 1.5 0 0 1 0-2.121l1.414-1.414a1.5 1.5 0 0 1 2.121 0L22 27.051l10.525-10.525a1.5 1.5 0 0 1 2.121 0l1.414 1.414a1.5 1.5 0 0 1 0 2.121l-13 13a1.5 1.5 0 0 1-2.121 0z" opacity=".07"/><path d="M21.293 32.707l-8-8a1 1 0 0 1 0-1.414l1.414-1.414a1 1 0 0 1 1.414 0L22 27.758l10.879-10.879a1 1 0 0 1 1.414 0l1.414 1.414a1 1 0 0 1 0 1.414l-13 13a1 1 0 0 1-1.414 0z" fill="#fff"/></svg>